<?xml version="1.0" standalone="no"?>
<!DOCTYPE svg PUBLIC "-//W3C//DTD SVG 20010904//EN"
 "http://www.w3.org/TR/2001/REC-SVG-20010904/DTD/svg10.dtd">
<svg version="1.0" xmlns="http://www.w3.org/2000/svg"
 width="530.000000pt" height="530.000000pt" viewBox="0 0 530.000000 530.000000"
 preserveAspectRatio="xMidYMid meet">
<metadata>
Created by potrace 1.14, written by Peter Selinger 2001-2017
</metadata>
<g transform="translate(0.000000,530.000000) scale(0.100000,-0.100000)"
fill="#000000" stroke="none">
<path d="M317 4902 c-12 -3 40 -78 196 -283 116 -154 221 -293 232 -309 11
-16 103 -138 204 -272 101 -134 374 -496 607 -805 l423 -561 -142 -189 c-78
-103 -239 -316 -358 -473 -577 -763 -970 -1283 -1023 -1355 -33 -44 -62 -82
-65 -85 -13 -11 -131 -169 -131 -174 0 -4 310 -6 688 -6 l689 0 91 128 c51 70
97 134 102 142 14 20 285 399 304 425 8 11 126 175 261 365 136 190 250 346
255 348 4 2 34 -34 67 -80 376 -525 502 -700 521 -723 4 -5 23 -32 42 -60 19
-27 38 -54 43 -60 4 -5 85 -117 178 -248 l170 -237 690 0 c550 0 689 3 683 12
-7 12 -107 144 -569 755 -398 525 -746 986 -898 1188 -91 121 -170 225 -174
230 -4 6 -23 29 -42 53 l-33 43 145 192 c79 106 277 368 439 582 538 714 881
1169 985 1307 58 76 102 141 100 145 -3 5 -310 8 -683 7 -667 -1 -677 -1 -693
-21 -9 -11 -30 -40 -47 -64 -44 -62 -662 -928 -682 -955 -9 -13 -66 -93 -127
-178 -60 -86 -113 -156 -116 -156 -3 0 -48 61 -100 136 -52 75 -99 141 -104
147 -6 7 -134 188 -285 402 -330 470 -470 667 -481 679 -7 8 -1321 16 -1362 8z"/>
</g>
</svg>
